<?xml version="1.0" encoding="utf-8"?>
<!-- Generator: Adobe Illustrator 26.0.1, SVG Export Plug-In . SVG Version: 6.00 Build 0)  -->
<svg version="1.1" id="Layer_1" xmlns="http://www.w3.org/2000/svg" xmlns:xlink="http://www.w3.org/1999/xlink" x="0px" y="0px"
	 viewBox="0 0 128 128" style="enable-background:new 0 0 128 128;" xml:space="preserve">
<style type="text/css">
	.binanceusd0{fill:#F0B90B;}
	.binanceusd1{fill:#FFFFFF;}
</style>
<path class="binanceusd0" d="M64,128c35.5,0,64-28.5,64-64S99.5,0,64,0S0,28.5,0,64S28.5,128,64,128z"/>
<g id="Layer_2_00000074407773777391466280000002169076044603138211_">
	<g id="Layer_1-2">
		<g>
			<path class="binanceusd1" d="M62.9,18.2l12.1,12.4L44.6,61.1L32.4,49L62.9,18.2z"/>
			<path class="binanceusd1" d="M44.6,61.3L32.2,49l30.7-31l12.3,12.6l-0.1,0.1L44.6,61.3z M32.7,49l11.9,11.9l30.3-30.3L62.9,18.4L32.7,49z
				"/>
		</g>
		<g>
			<path class="binanceusd1" d="M81.3,36.6L93.4,49L44.6,97.9L32.4,85.8L81.3,36.6z"/>
			<path class="binanceusd1" d="M44.6,98.1L32.2,85.8l49.1-49.4L93.6,49L44.6,98.1z M32.7,85.8l11.9,11.9L93.2,49L81.3,36.8L32.7,85.8z"/>
		</g>
		<g>
			<path class="binanceusd1" d="M26.2,55l12.1,12.4L26.2,79.5L14.1,67.4L26.2,55z"/>
			<path class="binanceusd1" d="M26.2,79.7L13.9,67.4l12.3-12.6l12.3,12.6L26.2,79.7z M14.3,67.4l11.9,11.9l11.9-11.9L26.2,55.2L14.3,67.4z"
				/>
		</g>
		<g>
			<path class="binanceusd1" d="M99.7,55l12.1,12.4l-48.9,48.9l-12.1-12.1L99.7,55z"/>
			<path class="binanceusd1" d="M62.9,116.5l-12.3-12.3l49.1-49.4L112,67.4L62.9,116.5z M51,104.1L62.9,116l48.7-48.7L99.7,55.2L51,104.1z"
				/>
		</g>
	</g>
</g>
</svg>
