<?xml version="1.0" encoding="utf-8"?>
<!-- Generator: Adobe Illustrator 26.0.1, SVG Export Plug-In . SVG Version: 6.00 Build 0)  -->
<svg version="1.1" id="Layer_1" xmlns="http://www.w3.org/2000/svg" xmlns:xlink="http://www.w3.org/1999/xlink" x="0px" y="0px"
	 viewBox="0 0 128 128" style="enable-background:new 0 0 128 128;" xml:space="preserve">
<style type="text/css">
	.st0{fill-rule:evenodd;clip-rule:evenodd;fill:#F0B90B;}
	.st1{fill:#FFFFFF;}
</style>
<g>
	<path class="st0" d="M64,0c35.3,0,64,28.7,64,64s-28.7,64-64,64S0,99.3,0,64S28.7,0,64,0L64,0z"/>
	<path class="st1" d="M35.2,64l0,16.9l14.4,8.5v9.9L26.8,85.9V59.1L35.2,64L35.2,64z M35.2,47.1v9.9l-8.4-5v-9.9l8.4-5l8.4,5
		L35.2,47.1L35.2,47.1z M55.6,42.1l8.4-5l8.4,5l-8.4,5L55.6,42.1L55.6,42.1z"/>
	<path class="st1" d="M41.2,77.4v-9.9l8.4,5v9.9L41.2,77.4L41.2,77.4z M55.6,92.9l8.4,5l8.4-5v9.9l-8.4,5l-8.4-5V92.9L55.6,92.9z
		 M84.4,42.1l8.4-5l8.4,5V52l-8.4,5v-9.9L84.4,42.1L84.4,42.1L84.4,42.1z M92.8,80.9l0-16.9l8.4-5v26.9L78.4,99.3v-9.9L92.8,80.9
		L92.8,80.9L92.8,80.9z"/>
	<polygon class="st1" points="86.8,77.4 78.4,82.3 78.4,72.5 86.8,67.5 	"/>
	<path class="st1" d="M86.8,50.6l0,9.9L72.4,69v17L64,90.8l-8.4-4.9V69l-14.4-8.5v-9.9l8.4-5L64,54.1l14.4-8.5L86.8,50.6L86.8,50.6
		L86.8,50.6z M41.2,33.7L64,20.3l22.8,13.4l-8.4,5L64,30.1l-14.4,8.5L41.2,33.7L41.2,33.7z"/>
</g>
</svg>
