<?xml version="1.0" encoding="utf-8"?>
<!-- Generator: Adobe Illustrator 26.0.1, SVG Export Plug-In . SVG Version: 6.00 Build 0)  -->
<svg version="1.1" id="Layer_1" xmlns="http://www.w3.org/2000/svg" xmlns:xlink="http://www.w3.org/1999/xlink" x="0px" y="0px"
	 viewBox="0 0 128 128" style="enable-background:new 0 0 128 128;" xml:space="preserve">
<style type="text/css">
	.tetherusdt0{fill:#26A17B;}
	.tetherusdt1{fill:#FFFFFF;}
</style>
<g>
	<circle class="tetherusdt0" cx="64" cy="64" r="64"/>
	<g>
		<path class="tetherusdt1" d="M70.8,69.9L70.8,69.9c-0.4,0-2.7,0.2-7.8,0.2c-4.1,0-6.9-0.1-7.9-0.2v0c-15.6-0.7-27.3-3.4-27.3-6.7
			c0-3.3,11.7-6,27.3-6.7v10.6c1,0.1,4,0.2,8,0.2c4.9,0,7.3-0.2,7.7-0.2V56.6C86.4,57.3,98,60,98,63.2C98,66.5,86.4,69.2,70.8,69.9
			 M70.8,55.5V46h21.8V31.5H33.3V46h21.8v9.5c-17.7,0.8-31,4.3-31,8.5s13.3,7.7,31,8.5V103h15.7V72.5c17.7-0.8,30.9-4.3,30.9-8.5
			C101.8,59.8,88.5,56.3,70.8,55.5"/>
	</g>
</g>
</svg>
