<?xml version="1.0" encoding="utf-8"?>
<!-- Generator: Adobe Illustrator 26.0.1, SVG Export Plug-In . SVG Version: 6.00 Build 0)  -->
<svg version="1.1" id="Layer_1" xmlns="http://www.w3.org/2000/svg" xmlns:xlink="http://www.w3.org/1999/xlink" x="0px" y="0px"
	 viewBox="0 0 128 128" style="enable-background:new 0 0 128 128;" xml:space="preserve">
<style type="text/css">
	.usdcoin0{fill:#2775CA;}
	.usdcoin1{fill:#FFFFFF;}
</style>
<g>
	<path class="usdcoin0" d="M64,128c35.5,0,64-28.5,64-64S99.5,0,64,0S0,28.5,0,64S28.5,128,64,128z"/>
	<path class="usdcoin1" d="M81.6,74.1c0-9.3-5.6-12.5-16.8-13.9c-8-1.1-9.6-3.2-9.6-6.9c0-3.7,2.7-6.1,8-6.1c4.8,0,7.5,1.6,8.8,5.6
		c0.3,0.8,1.1,1.3,1.9,1.3h4.3c1.1,0,1.9-0.8,1.9-1.9V52c-1.1-5.9-5.9-10.4-12-10.9v-6.4c0-1.1-0.8-1.9-2.1-2.1h-4
		c-1.1,0-1.9,0.8-2.1,2.1v6.1c-8,1.1-13.1,6.4-13.1,13.1c0,8.8,5.3,12.3,16.5,13.6c7.5,1.3,9.9,2.9,9.9,7.2s-3.7,7.2-8.8,7.2
		c-6.9,0-9.3-2.9-10.1-6.9c-0.3-1.1-1.1-1.6-1.9-1.6h-4.5c-1.1,0-1.9,0.8-1.9,1.9v0.3c1.1,6.7,5.3,11.5,14.1,12.8v6.4
		c0,1.1,0.8,1.9,2.1,2.1h4c1.1,0,1.9-0.8,2.1-2.1v-6.4C76.3,86.9,81.6,81.3,81.6,74.1L81.6,74.1z"/>
	<path class="usdcoin1" d="M50.4,102.1c-20.8-7.5-31.5-30.7-23.7-51.2c4-11.2,12.8-19.7,23.7-23.7c1.1-0.5,1.6-1.3,1.6-2.7v-3.7
		c0-1.1-0.5-1.9-1.6-2.1c-0.3,0-0.8,0-1.1,0.3c-25.3,8-39.2,34.9-31.2,60.3c4.8,14.9,16.3,26.4,31.2,31.2c1.1,0.5,2.1,0,2.4-1.1
		c0.3-0.3,0.3-0.5,0.3-1.1v-3.7C52,103.7,51.2,102.7,50.4,102.1z M78.7,18.9c-1.1-0.5-2.1,0-2.4,1.1C76,20.3,76,20.5,76,21.1v3.7
		c0,1.1,0.8,2.1,1.6,2.7c20.8,7.5,31.5,30.7,23.7,51.2c-4,11.2-12.8,19.7-23.7,23.7c-1.1,0.5-1.6,1.3-1.6,2.7v3.7
		c0,1.1,0.5,1.9,1.6,2.1c0.3,0,0.8,0,1.1-0.3c25.3-8,39.2-34.9,31.2-60.3C105.1,35.2,93.3,23.7,78.7,18.9L78.7,18.9z"/>
</g>
</svg>
